<svg width="36" height="36" viewBox="0 0 36 36" fill="none" xmlns="http://www.w3.org/2000/svg">
<rect width="36" height="36" rx="12" fill="#F20000"/>
<g clip-path="url(#clip0_37306_23257)">
<path d="M17.2476 9.17475L7.2002 27.0851H8.81213C9.11637 27.0849 9.41506 27.0035 9.6774 26.8495C9.93975 26.6954 10.1563 26.4742 10.3047 26.2086L17.5448 13.2521L24.7808 26.2099C24.9294 26.4753 25.146 26.6964 25.4083 26.8505C25.6706 27.0045 25.9692 27.0859 26.2733 27.0864H27.9016L17.8473 9.1761C17.818 9.12226 17.7747 9.07731 17.722 9.04594C17.6694 9.01457 17.6092 8.99794 17.5479 8.9978C17.4866 8.99766 17.4263 9.01401 17.3735 9.04514C17.3207 9.07628 17.2772 9.12104 17.2476 9.17475Z" fill="white"/>
<path d="M20.3265 9.2693L23.3116 14.6967C23.3263 14.7236 23.348 14.746 23.3744 14.7616C23.4007 14.7772 23.4308 14.7855 23.4615 14.7855C23.4921 14.7855 23.5222 14.7772 23.5486 14.7616C23.575 14.746 23.5967 14.7236 23.6114 14.6967L26.6317 9.25167C26.6461 9.22547 26.6534 9.19598 26.6529 9.16611C26.6524 9.13624 26.6442 9.10701 26.629 9.08129C26.6138 9.05557 26.5922 9.03423 26.5663 9.01938C26.5403 9.00453 26.511 8.99667 26.4811 8.99658L20.4798 9.01151C20.4492 9.01041 20.4188 9.01758 20.3919 9.03226C20.3649 9.04695 20.3424 9.06861 20.3268 9.09497C20.3111 9.12133 20.3028 9.15143 20.3027 9.1821C20.3027 9.21277 20.3109 9.24289 20.3265 9.2693Z" fill="white"/>
</g>
<defs>
<clipPath id="clip0_37306_23257">
<rect width="20.7" height="18.0867" fill="white" transform="translate(7.2002 9.00024)"/>
</clipPath>
</defs>
</svg>
